<?xml version="1.0" encoding="UTF-8" standalone="no"?>
<!-- Created with Inkscape (http://www.inkscape.org/) -->

<svg
   version="1.1"
   id="svg192"
   xml:space="preserve"
   width="267.224"
   height="286.12134"
   viewBox="0 0 267.224 286.12134"
   xmlns="http://www.w3.org/2000/svg"
   xmlns:svg="http://www.w3.org/2000/svg"><defs
     id="defs196" /><g
     id="g198"
     transform="matrix(1.3333333,0,0,-1.3333333,0,286.12133)"><g
       id="g200"
       transform="translate(142.728,142.729)"><g
         id="g202"><g
           id="g204"><g
             id="g206"><path
               d="M 56.69362,0 C 56.69362,39.13927 31.31142,70.867 0,70.867 -31.31142,70.867 -56.69362,39.13927 -56.69362,0 c 0,-39.13927 25.3822,-70.867 56.69362,-70.867 31.31142,0 56.69362,31.72773 56.69362,70.867 z"
               style="fill:#ffffff;fill-opacity:1;fill-rule:nonzero;stroke:#000000;stroke-width:1.99255;stroke-linecap:butt;stroke-linejoin:miter;stroke-miterlimit:10;stroke-dasharray:none;stroke-opacity:1"
               id="path208" /></g><g
             id="g210"><path
               d="m 19.84267,0 c 0,13.69875 -8.88373,24.80345 -19.84267,24.80345 -10.95894,0 -19.84267,-11.1047 -19.84267,-24.80345 0,-13.69875 8.88373,-24.80345 19.84267,-24.80345 10.95894,0 19.84267,11.1047 19.84267,24.80345 z"
               style="fill:#000000;fill-opacity:1;fill-rule:nonzero;stroke:#000000;stroke-width:1.99255;stroke-linecap:butt;stroke-linejoin:miter;stroke-miterlimit:10;stroke-dasharray:none;stroke-opacity:1"
               id="path212" /></g><g
             id="g214"><path
               d="m 0,70.867 h -85.04042 v 0 c -31.31143,0 -56.69362,-31.72773 -56.69362,-70.867 v 0 -141.73404 h 85.04042 V 0 c 0,39.13927 25.3822,70.867 56.69362,70.867"
               style="fill:#ffffff;fill-opacity:1;fill-rule:nonzero;stroke:#000000;stroke-width:1.99255;stroke-linecap:butt;stroke-linejoin:miter;stroke-miterlimit:10;stroke-dasharray:none;stroke-opacity:1"
               id="path216" /></g><g
             id="g218"><path
               d="m -56.69362,-31.18166 h -85.04042"
               style="fill:none;stroke:#000000;stroke-width:1.99255;stroke-linecap:butt;stroke-linejoin:miter;stroke-miterlimit:10;stroke-dasharray:2.98883, 2.98883;stroke-dashoffset:0;stroke-opacity:1"
               id="path220" /></g><g
             id="g222"><path
               d="m -56.69362,0 c 0,-39.13927 25.3822,-70.867 56.69362,-70.867 h -56.69362 z"
               style="fill:#cccccc;fill-opacity:1;fill-rule:nonzero;stroke:#000000;stroke-width:1.99255;stroke-linecap:butt;stroke-linejoin:miter;stroke-miterlimit:10;stroke-dasharray:none;stroke-opacity:1"
               id="path224" /></g></g></g></g></g></svg>
