<?xml version="1.0" standalone="no"?>
<!DOCTYPE svg PUBLIC "-//W3C//DTD SVG 20010904//EN"
 "http://www.w3.org/TR/2001/REC-SVG-20010904/DTD/svg10.dtd">
<svg version="1.0" xmlns="http://www.w3.org/2000/svg"
 width="572.000000pt" height="572.000000pt" viewBox="0 0 572.000000 572.000000"
 preserveAspectRatio="xMidYMid meet">
<metadata>
Created by potrace 1.14, written by Peter Selinger 2001-2017
</metadata>
<g transform="translate(0.000000,572.000000) scale(0.100000,-0.100000)"
fill="#000000" stroke="none">
<path d="M1475 5700 c-229 -48 -447 -160 -639 -328 -264 -231 -481 -598 -576
-977 -70 -278 -65 -76 -68 -2347 l-2 -2048 1160 0 1160 0 0 939 0 940 818 4
c799 3 819 4 915 25 53 13 134 36 180 52 580 210 1012 830 1097 1578 17 144 8
527 -15 652 -60 329 -165 600 -330 845 -240 358 -566 590 -934 665 -96 19
-134 20 -1388 19 -1224 0 -1292 -1 -1378 -19z m2026 -75 c-465 -192 -840 -674
-985 -1266 -55 -229 -59 -275 -63 -831 l-5 -517 -21 -3 c-17 -2 -23 -11 -25
-35 -3 -30 -1 -33 22 -33 l26 0 0 -1440 0 -1440 -1100 0 -1101 0 4 1998 c3
1841 4 2005 20 2097 91 526 322 946 671 1223 179 143 398 240 611 271 33 5
503 9 1045 10 l985 1 -84 -35z m736 11 c553 -121 998 -610 1167 -1281 39 -153
56 -283 63 -470 13 -375 -56 -718 -207 -1034 -414 -860 -1276 -1152 -1981
-670 -348 238 -618 674 -713 1151 -40 198 -49 311 -43 537 7 295 46 502 143
751 213 547 647 944 1114 1020 41 6 82 13 90 15 37 9 302 -5 367 -19z"/>
<path d="M337 3004 c-4 -4 -7 -20 -7 -36 0 -28 2 -29 43 -26 39 3 42 5 42 33
0 27 -3 30 -35 33 -20 2 -39 0 -43 -4z"/>
<path d="M497 3004 c-4 -4 -7 -20 -7 -36 0 -28 2 -29 43 -26 39 3 42 5 42 33
0 27 -3 30 -35 33 -20 2 -39 0 -43 -4z"/>
<path d="M644 2985 c-9 -35 5 -47 52 -43 36 3 39 5 39 33 0 28 -3 30 -42 33
-38 3 -43 1 -49 -23z"/>
<path d="M804 2996 c-13 -33 0 -51 40 -54 46 -4 61 8 52 42 -6 23 -12 26 -47
26 -25 0 -42 -5 -45 -14z"/>
<path d="M964 2996 c-13 -34 0 -51 44 -54 l42 -3 0 35 c0 35 -1 36 -40 36 -26
0 -43 -5 -46 -14z"/>
<path d="M1124 2996 c-13 -35 0 -51 44 -54 l43 -3 -3 33 c-3 30 -6 33 -41 36
-26 2 -39 -1 -43 -12z"/>
<path d="M1287 3004 c-4 -4 -7 -20 -7 -36 0 -27 2 -28 46 -28 45 0 45 0 42 33
-3 29 -7 32 -38 35 -20 2 -39 0 -43 -4z"/>
<path d="M1447 3004 c-4 -4 -7 -20 -7 -36 0 -27 2 -28 46 -28 45 0 45 0 42 33
-3 29 -7 32 -38 35 -20 2 -39 0 -43 -4z"/>
<path d="M1607 3004 c-4 -4 -7 -20 -7 -36 0 -27 2 -28 46 -28 45 0 45 0 42 33
-3 29 -7 32 -38 35 -20 2 -39 0 -43 -4z"/>
<path d="M1767 3004 c-4 -4 -7 -20 -7 -36 0 -27 2 -28 46 -28 45 0 45 0 42 33
-3 29 -7 32 -38 35 -20 2 -39 0 -43 -4z"/>
<path d="M1927 3004 c-4 -4 -7 -20 -7 -36 0 -27 2 -28 46 -28 45 0 45 0 42 33
-3 29 -7 32 -38 35 -20 2 -39 0 -43 -4z"/>
<path d="M2087 3004 c-4 -4 -7 -20 -7 -36 0 -27 2 -28 46 -28 45 0 45 0 42 33
-3 29 -7 32 -38 35 -20 2 -39 0 -43 -4z"/>
<path d="M2247 3004 c-4 -4 -7 -20 -7 -36 0 -27 2 -28 46 -28 45 0 45 0 42 33
-3 29 -7 32 -38 35 -20 2 -39 0 -43 -4z"/>
<path d="M3886 4484 c-182 -44 -340 -204 -410 -415 -58 -175 -57 -361 3 -537
38 -110 83 -183 162 -263 157 -159 372 -200 562 -106 97 48 214 170 265 277
64 135 77 192 77 365 0 174 -13 232 -78 365 -55 112 -170 232 -267 278 -108
51 -206 62 -314 36z"/>
</g>
</svg>
